<svg id="Laag_1" data-name="Laag 1" xmlns="http://www.w3.org/2000/svg" xmlns:xlink="http://www.w3.org/1999/xlink" viewBox="0 0 2488.6 796.9"><defs><style>.cls-1{fill:none;}.cls-2{clip-path:url(#clip-path);}.cls-3{fill:url(#Naamloos_verloop_2);}.cls-4{fill:#d37500;}.cls-5{fill:#2a2070;}.cls-6{fill:url(#Naamloos_verloop_3);}.cls-7{fill:url(#Naamloos_verloop_4);}.cls-8{fill:url(#Naamloos_verloop_5);}.cls-9{fill:url(#Naamloos_verloop_6);}</style><clipPath id="clip-path"><rect class="cls-1" x="26.79" y="24.19" width="2461.82" height="772.72"/></clipPath><radialGradient id="Naamloos_verloop_2" cx="3009.9" cy="634.28" r="631" gradientTransform="matrix(1.42, 0, 0, -0.17, -2390.7, 794.78)" gradientUnits="userSpaceOnUse"><stop offset="0" stop-color="#4d4d4d"/><stop offset="0.03" stop-color="#595959"/><stop offset="0.14" stop-color="#858585"/><stop offset="0.27" stop-color="#aaa"/><stop offset="0.39" stop-color="#c9c9c9"/><stop offset="0.52" stop-color="#e1e1e1"/><stop offset="0.66" stop-color="#f2f2f2"/><stop offset="0.81" stop-color="#fcfcfc"/><stop offset="1" stop-color="#fff"/></radialGradient><radialGradient id="Naamloos_verloop_3" cx="2117.78" cy="583.99" r="592.35" gradientTransform="matrix(1, 0, 0, -1, -42.92, 771.84)" gradientUnits="userSpaceOnUse"><stop offset="0.19" stop-color="#f9ae00"/><stop offset="0.57" stop-color="#c5582e"/><stop offset="0.8" stop-color="#882e4e"/><stop offset="0.95" stop-color="#882e4e"/></radialGradient><radialGradient id="Naamloos_verloop_4" cx="2130.25" cy="629.47" r="592.35" gradientTransform="matrix(1, 0, 0, -1, -42.92, 771.84)" gradientUnits="userSpaceOnUse"><stop offset="0" stop-color="#f9ae00"/><stop offset="0.41" stop-color="#c5582e"/><stop offset="0.79" stop-color="#ab2a33"/><stop offset="1" stop-color="#882e4e"/></radialGradient><linearGradient id="Naamloos_verloop_5" x1="1614.77" y1="726" x2="1899.34" y2="633.94" gradientTransform="matrix(1, 0, 0, -1, 0, 820.38)" gradientUnits="userSpaceOnUse"><stop offset="0" stop-color="#84a736"/><stop offset="0.37" stop-color="#acc023"/><stop offset="0.99" stop-color="#ffe100"/></linearGradient><linearGradient id="Naamloos_verloop_6" x1="1541.9" y1="9.82" x2="1860.23" y2="9.82" gradientTransform="matrix(0.78, 0.63, 0.63, -0.78, 418.92, -814.08)" gradientUnits="userSpaceOnUse"><stop offset="0" stop-color="#497a35"/><stop offset="0.13" stop-color="#59903f"/><stop offset="0.69" stop-color="#a7bc26"/></linearGradient></defs><g id="Laag_1-2" data-name="Laag 1"><g class="cls-2"><ellipse class="cls-3" cx="1891.37" cy="688.05" rx="897.83" ry="108.86"/></g><path class="cls-4" d="M205.87,655.92a37.43,37.43,0,0,1-3,15.2,34.87,34.87,0,0,1-8.58,11.94A39.51,39.51,0,0,1,181,690.85a54.24,54.24,0,0,1-34.3,0,39,39,0,0,1-13.27-7.79,35.06,35.06,0,0,1-8.58-11.94,39.06,39.06,0,0,1,0-30.38,35,35,0,0,1,8.58-12,39.39,39.39,0,0,1,13.27-7.82,54,54,0,0,1,34.3,0,39.92,39.92,0,0,1,13.27,7.82,34.83,34.83,0,0,1,8.58,12A37.53,37.53,0,0,1,205.87,655.92Zm-12.86,0A32.27,32.27,0,0,0,191,644.09a24.73,24.73,0,0,0-5.87-8.9,25.77,25.77,0,0,0-9.21-5.61,38.27,38.27,0,0,0-24.12,0,26,26,0,0,0-9.23,5.61,24.25,24.25,0,0,0-5.9,8.9,35,35,0,0,0,0,23.68,24.39,24.39,0,0,0,5.9,8.88,25.78,25.78,0,0,0,9.23,5.58,38.55,38.55,0,0,0,24.12,0,25.55,25.55,0,0,0,9.21-5.58,24.74,24.74,0,0,0,5.87-8.88,32.17,32.17,0,0,0,2.1-11.85Z"/><path class="cls-4" d="M315.39,619v73.88H309a5.72,5.72,0,0,1-2.45-.46,7.3,7.3,0,0,1-2-1.49l-47.83-54c.08.92.15,1.82.21,2.72s.09,1.73.09,2.52v50.68H246V619h6.49a7.41,7.41,0,0,1,2.47.33,5.6,5.6,0,0,1,1.83,1.52l47.95,54c-.11-1-.21-2-.26-2.91s-.09-1.83-.09-2.64V619Z"/><path class="cls-4" d="M408.79,683.65v9.21H360.31V619h12.56v64.67Z"/><path class="cls-4" d="M457.41,692.86H444.79V619h12.62Z"/><path class="cls-4" d="M571.65,619v73.88h-6.37a5.72,5.72,0,0,1-2.45-.46,7.3,7.3,0,0,1-2-1.49l-47.83-54c.07.92.15,1.82.2,2.72s.09,1.73.09,2.52v50.68h-11V619h6.49a7.43,7.43,0,0,1,2.48.33,5.57,5.57,0,0,1,1.82,1.52l48,54c-.12-1-.21-2-.27-2.91s-.09-1.83-.09-2.64V619Z"/><path class="cls-4" d="M669.12,684l-.06,8.9H616.57V619h52.49v8.9H629.19v23.41h32.08v8.59H629.19V684Z"/><path class="cls-4" d="M844.59,631a4.62,4.62,0,0,1-1.24,1.29,3.07,3.07,0,0,1-1.65.41,4.68,4.68,0,0,1-2.42-.85c-.91-.56-2-1.21-3.39-1.9a28.29,28.29,0,0,0-4.87-1.91,23.89,23.89,0,0,0-6.78-.85,22.42,22.42,0,0,0-6.52.85,14.49,14.49,0,0,0-4.69,2.32,9.71,9.71,0,0,0-2.86,3.44,9.59,9.59,0,0,0-1,4.3,7.15,7.15,0,0,0,1.74,4.94,14.49,14.49,0,0,0,4.57,3.34,37.73,37.73,0,0,0,6.43,2.42c2.4.68,4.85,1.4,7.37,2.13a77.29,77.29,0,0,1,7.38,2.55,26.09,26.09,0,0,1,6.42,3.63,17.16,17.16,0,0,1,4.57,5.35,16,16,0,0,1,1.74,7.74,22.2,22.2,0,0,1-1.91,9.16,21.68,21.68,0,0,1-5.58,7.46,26.57,26.57,0,0,1-9,5,37.52,37.52,0,0,1-12,1.81A43.72,43.72,0,0,1,813,693a42.32,42.32,0,0,1-7.25-2,37.69,37.69,0,0,1-6.4-3,30.13,30.13,0,0,1-5.34-4l3.6-5.25a4.76,4.76,0,0,1,1.27-1,3.37,3.37,0,0,1,1.68-.41,5.2,5.2,0,0,1,2.86,1.13c1.08.76,2.42,1.58,4,2.49a32.34,32.34,0,0,0,5.72,2.51,25.85,25.85,0,0,0,8.11,1.12,24.73,24.73,0,0,0,7-.9,14.54,14.54,0,0,0,5.16-2.57,11.49,11.49,0,0,0,3.22-4,12.14,12.14,0,0,0,1.12-5.24,8.07,8.07,0,0,0-1.71-5.3,13.83,13.83,0,0,0-4.54-3.45,37,37,0,0,0-6.43-2.37c-2.4-.67-4.86-1.33-7.38-2s-5-1.51-7.37-2.44a24.62,24.62,0,0,1-6.51-3.63,16.48,16.48,0,0,1-4.54-5.61,18.19,18.19,0,0,1-1.71-8.31,17.55,17.55,0,0,1,1.77-7.66,19.63,19.63,0,0,1,5.16-6.56,26.2,26.2,0,0,1,8.35-4.58,34.49,34.49,0,0,1,11.32-1.72,41.74,41.74,0,0,1,13.12,2,31.46,31.46,0,0,1,10.41,5.68Z"/><path class="cls-4" d="M921.6,684.06a26,26,0,0,0,9.08-1.49,19.13,19.13,0,0,0,6.79-4.19,18.39,18.39,0,0,0,4.24-6.44,22.35,22.35,0,0,0,1.48-8.25V619h12.5v44.67a30.15,30.15,0,0,1-2.36,12,27,27,0,0,1-6.78,9.52,31.52,31.52,0,0,1-10.74,6.28,45.6,45.6,0,0,1-28.43,0,31.54,31.54,0,0,1-10.73-6.28,27,27,0,0,1-6.78-9.52,29.94,29.94,0,0,1-2.36-12V619h12.56v44.67a22.57,22.57,0,0,0,1.45,8.29,17.68,17.68,0,0,0,4.21,6.46,19,19,0,0,0,6.79,4.19A26,26,0,0,0,921.6,684.06Z"/><path class="cls-4" d="M1059.09,677a2.57,2.57,0,0,1,1.82.72l5,4.74a35.53,35.53,0,0,1-12.65,8.28,49.29,49.29,0,0,1-18,2.93,47.47,47.47,0,0,1-16.66-2.77,37.24,37.24,0,0,1-12.74-7.78,34.38,34.38,0,0,1-8.17-11.93,39.38,39.38,0,0,1-2.89-15.28,37.52,37.52,0,0,1,3-15.29,35,35,0,0,1,8.52-11.93,39.05,39.05,0,0,1,13.13-7.76,49.09,49.09,0,0,1,16.9-2.78,46.34,46.34,0,0,1,16,2.57,42,42,0,0,1,12.21,6.84l-4.13,5.1a3.37,3.37,0,0,1-1,.92,3.19,3.19,0,0,1-1.63.36,5,5,0,0,1-2.62-1,40,40,0,0,0-4-2.18,33.38,33.38,0,0,0-6-2.19,34.57,34.57,0,0,0-9-1,33.21,33.21,0,0,0-11.56,1.92,25.93,25.93,0,0,0-9.06,5.56,24.65,24.65,0,0,0-5.89,8.9,31.87,31.87,0,0,0-2.1,11.91,31,31,0,0,0,2.18,12,25.29,25.29,0,0,0,15,14.45,32.18,32.18,0,0,0,11.21,1.9,50,50,0,0,0,6.58-.38,31.93,31.93,0,0,0,5.37-1.16,23.9,23.9,0,0,0,4.62-2,30.37,30.37,0,0,0,4.31-2.9,4.58,4.58,0,0,1,1-.6A2.79,2.79,0,0,1,1059.09,677Z"/><path class="cls-4" d="M1160.11,677a2.59,2.59,0,0,1,1.83.72l5,4.74a35.53,35.53,0,0,1-12.65,8.28,49.29,49.29,0,0,1-18,2.93,47.47,47.47,0,0,1-16.66-2.77,37.08,37.08,0,0,1-12.74-7.78,34.38,34.38,0,0,1-8.17-11.93,39.2,39.2,0,0,1-2.89-15.28,37.52,37.52,0,0,1,3-15.29,34.72,34.72,0,0,1,8.52-11.93,39.11,39.11,0,0,1,13.12-7.76,49.13,49.13,0,0,1,16.9-2.78,46.34,46.34,0,0,1,16,2.57,42,42,0,0,1,12.21,6.84l-4.13,5.1a3.51,3.51,0,0,1-1,.92,3.19,3.19,0,0,1-1.63.36,5,5,0,0,1-2.62-1,40.72,40.72,0,0,0-4-2.18,33.94,33.94,0,0,0-6-2.19,34.57,34.57,0,0,0-9-1,33.12,33.12,0,0,0-11.55,1.92,25.93,25.93,0,0,0-9.06,5.56,24.68,24.68,0,0,0-5.9,8.9,32.06,32.06,0,0,0-2.09,11.91,30.76,30.76,0,0,0,2.18,12,25.29,25.29,0,0,0,15,14.45,32.18,32.18,0,0,0,11.21,1.9,49.82,49.82,0,0,0,6.57-.38,31.93,31.93,0,0,0,5.37-1.16,25.29,25.29,0,0,0,4.63-2,31,31,0,0,0,4.31-2.9,4.58,4.58,0,0,1,1-.6A2.75,2.75,0,0,1,1160.11,677Z"/><path class="cls-4" d="M1255.68,684v8.9h-52.5V619h52.5v8.9H1215.8v23.41h32.07v8.59h-32.09V684Z"/><path class="cls-4" d="M1340.29,631a4.62,4.62,0,0,1-1.24,1.29,3.07,3.07,0,0,1-1.65.41,4.77,4.77,0,0,1-2.42-.85c-.91-.56-2-1.21-3.39-1.9a28.29,28.29,0,0,0-4.87-1.91,23.53,23.53,0,0,0-6.78-.85,22.42,22.42,0,0,0-6.52.85,14.49,14.49,0,0,0-4.69,2.32,10,10,0,0,0-2.86,3.44,9.59,9.59,0,0,0-1,4.3,7.15,7.15,0,0,0,1.74,4.94,14.49,14.49,0,0,0,4.57,3.34,38.05,38.05,0,0,0,6.43,2.42c2.4.68,4.86,1.4,7.37,2.13s5,1.59,7.38,2.55a26.09,26.09,0,0,1,6.42,3.63,17.19,17.19,0,0,1,4.58,5.35,15.88,15.88,0,0,1,1.73,7.74,22.2,22.2,0,0,1-1.91,9.16,21.68,21.68,0,0,1-5.58,7.46,26.57,26.57,0,0,1-9,5,37.52,37.52,0,0,1-12.12,1.82,43.61,43.61,0,0,1-7.9-.69,42.18,42.18,0,0,1-7.26-2,37.69,37.69,0,0,1-6.4-3,30.62,30.62,0,0,1-5.34-4l3.6-5.25a4.76,4.76,0,0,1,1.27-1,3.37,3.37,0,0,1,1.68-.41,5.2,5.2,0,0,1,2.86,1.13c1.08.76,2.42,1.58,4,2.49a33.87,33.87,0,0,0,5.72,2.51,25.85,25.85,0,0,0,8.11,1.12,24.38,24.38,0,0,0,7-.9,14.54,14.54,0,0,0,5.16-2.57,11.49,11.49,0,0,0,3.22-4,12.14,12.14,0,0,0,1.12-5.24,8.07,8.07,0,0,0-1.71-5.3,13.6,13.6,0,0,0-4.54-3.45,37,37,0,0,0-6.43-2.37c-2.4-.67-4.86-1.33-7.38-2s-5-1.51-7.37-2.44a24.44,24.44,0,0,1-6.43-3.63,16.48,16.48,0,0,1-4.54-5.61,18.19,18.19,0,0,1-1.71-8.31,17.55,17.55,0,0,1,1.77-7.66,19.63,19.63,0,0,1,5.16-6.56,26.2,26.2,0,0,1,8.35-4.58,34.49,34.49,0,0,1,11.32-1.72,41.74,41.74,0,0,1,13.12,2,31.46,31.46,0,0,1,10.41,5.68Z"/><path class="cls-5" d="M360.19,247.16H68.47c-24.43,0-41.68,24.29-41.68,46.93V532.93h91.5V415.22H356.87c21.08,0,90.54-17.81,90.54-85.16S377.43,247.16,360.19,247.16Zm-35.75,117.7H117.81v-69.6H324.44s44.49,0,44.49,34.8-44.49,34.8-44.49,34.8Z"/><path class="cls-5" d="M800.29,247.7H506.8V532.93H806.87C831.78,532.93,926,509.33,926,390S842.6,247.7,800.29,247.7ZM737.53,486H597.87V295.26H734.18c27.3,0,103,6.05,103,95.35S765.79,486,737.53,486Z"/><polygon class="cls-5" points="1449.4 532.93 1341.75 369.16 1436.95 247.7 1342.83 247.7 1261.18 352.55 1250.56 366.21 1074.46 366.21 1074.46 247.7 988.72 247.7 988.72 532.93 1074 532.93 1074 416.36 1279.15 416.36 1355.28 532.93 1449.4 532.93"/><path class="cls-6" d="M1943.13,637.81c-65.91,0-124.79-27.39-165.77-77.1-49.59-60.16-67.91-146.71-50.27-237.48,32.6-167.69,172.93-299,319.49-299,65.91,0,124.78,27.38,165.77,77.1,49.59,60.15,67.91,146.71,50.26,237.47C2230,506.45,2089.69,637.81,1943.13,637.81Zm83-557.14c-105.29,0-215,106.77-239.56,233.15-13,66.81-.89,128.82,33.17,170.14,25.6,31.05,61.2,47.47,102.94,47.47,105.29,0,215-106.77,239.55-233.15,13-66.81.9-128.82-33.16-170.14-25.56-31.06-61.2-47.49-102.9-47.49Z"/><path class="cls-7" d="M1975.87,164.65c-44.86,0-91.9,47-102.72,102.67-5.5,28.27-.81,54,12.86,70.57,9.43,11.44,22.12,17.25,37.72,17.25,44.87,0,91.91-47,102.72-102.66h0c5.5-28.27.81-54-12.86-70.57C2004.13,170.47,1991.44,164.65,1975.87,164.65Z"/><polygon class="cls-8" points="1631.88 139.43 1952.38 248.93 1589.1 40.74 1631.88 139.43"/><polygon class="cls-9" points="1631.88 139.43 1547.44 247.66 1952.38 248.93 1631.88 139.43"/></g></svg>